<?xml version="1.0" encoding="UTF-8"?>
<svg version="1.1" xmlns="http://www.w3.org/2000/svg" width="4167" height="1217">
<path d="M0 0 C4.88920569 0.00020689 9.77840577 -0.00534187 14.66760874 -0.01005757 C24.21442197 -0.0183034 33.76122903 -0.02110965 43.30804554 -0.02166995 C51.08316154 -0.02214806 58.85827554 -0.0242174 66.6333909 -0.02737057 C88.76529522 -0.03616099 110.89719473 -0.04079254 133.02910081 -0.0400401 C134.21796516 -0.04000014 135.40682952 -0.03996019 136.63172007 -0.03991902 C137.82206664 -0.03987814 139.01241321 -0.03983726 140.23883089 -0.03979514 C159.50190245 -0.03938924 178.7649544 -0.04894881 198.02802029 -0.06305739 C217.8934798 -0.07749023 237.75892979 -0.08432378 257.62439466 -0.08346361 C268.74255993 -0.08313399 279.86070465 -0.08577668 290.97886515 -0.09664166 C300.44908738 -0.10583825 309.91927977 -0.1078481 319.38950458 -0.10113224 C324.20226624 -0.09791233 329.01497094 -0.09764143 333.82772684 -0.10648549 C352.38248598 -0.13834435 370.88323541 0.0493311 389.41461802 1.04728496 C390.1651784 1.08695016 390.91573879 1.12661536 391.68904343 1.16748253 C413.55106768 2.35416752 435.19771097 5.23404626 456.31629038 11.14538372 C456.97661264 11.326497 457.63693491 11.50761028 458.31726694 11.69421184 C487.72136545 19.96459139 514.64706534 37.43892066 530.21961069 64.17565715 C551.10313944 101.68418564 553.47221307 144.4698209 553.48425913 186.45397747 C553.48666374 188.43686629 553.48907076 190.41975511 553.49171954 192.40264362 C553.49981174 198.62931219 553.50230876 204.85596635 553.50159311 211.08263958 C553.50099479 217.43373504 553.51150965 223.78474491 553.52733678 230.13581878 C553.54056904 235.64898121 553.5457705 241.16211623 553.5451377 246.67529434 C553.54488709 249.94104382 553.54846421 253.20670187 553.55831575 256.47243869 C553.61447838 277.01742449 552.93933395 297.52626191 549.56629038 317.83288372 C549.39782602 318.85704387 549.22936167 319.88120403 549.05579233 320.93639934 C544.24824457 348.63815337 534.39782078 374.25998634 515.31629038 395.14538372 C514.33209116 396.25333293 514.33209116 396.25333293 513.32800913 397.38366497 C503.30250053 408.09614631 490.53565059 415.16637932 477.31629038 421.14538372 C476.16000132 421.67905559 475.00371225 422.21272747 473.81238413 422.76257122 C458.41919012 429.40142361 441.81192187 432.78982232 425.31629038 435.39538372 C424.37100473 435.54636516 423.42571909 435.69734661 422.45178843 435.85290325 C419.07992517 436.34828092 415.70150375 436.75491973 412.31629038 437.14538372 C411.60624353 437.22889512 410.89619669 437.31240653 410.16463327 437.39844859 C389.87580884 439.67868093 369.5614865 439.4200889 349.17722988 439.37751496 C343.9178892 439.36877785 338.65855255 439.37180778 333.39920664 439.37331951 C324.31429972 439.37436195 315.22942181 439.3681529 306.14452219 439.35684383 C293.00971589 439.34050411 279.87492343 439.33537221 266.74010807 439.33286785 C245.42337186 439.32850395 224.10665105 439.31523049 202.78992319 439.29626262 C182.09786668 439.27786988 161.40581437 439.26373004 140.71375132 439.255247 C139.43564858 439.25472155 138.15754585 439.2541961 136.84071273 439.25365473 C130.42805734 439.25104442 124.01540192 439.24851706 117.60274649 439.24603093 C64.50725047 439.22533913 11.41177118 439.19014941 -41.68370962 439.14538372 C-41.55902628 443.06838786 -41.43133974 446.9912827 -41.30109549 450.91410625 C-41.23607534 452.89019722 -41.17330432 454.86636179 -41.1105895 456.84252727 C-40.27507496 481.8485669 -39.20650225 508.12644486 -20.68370962 527.14538372 C-17.52817997 529.82651787 -14.24173924 532.03345385 -10.68370962 534.14538372 C-9.80199087 534.66874309 -8.92027212 535.19210247 -8.01183462 535.73132122 C13.76416598 547.58179668 39.94320252 548.60957421 64.17796946 548.54411113 C66.27259797 548.5495679 68.36722341 548.55632655 70.46184403 548.56425303 C76.14490742 548.58207998 81.82783884 548.58174597 87.5109235 548.57812357 C93.66669862 548.57749465 99.82243136 548.59416676 105.97818613 548.60864055 C116.61934074 548.63133816 127.26045715 548.64340075 137.90163088 548.64776981 C149.04977563 548.6523925 160.19788647 548.66323301 171.34601641 548.68219745 C172.04176783 548.68337758 172.73751924 548.68455771 173.45435404 548.6857736 C176.98839073 548.69179985 180.52242723 548.69793545 184.05646367 548.7041131 C209.02302782 548.74755971 233.98959114 548.77733728 258.95618296 548.79894817 C283.19577867 548.81996138 307.43535421 548.84724583 331.67493296 548.88293254 C332.42341798 548.88403202 333.171903 548.8851315 333.94306939 548.88626429 C341.46034847 548.89731358 348.97762735 548.90848941 356.49490611 548.91975792 C371.80552945 548.94270587 387.11615396 548.96480974 402.42677927 548.98640239 C403.13058253 548.98739601 403.83438579 548.98838963 404.55951642 548.98941336 C451.47842482 549.0555561 498.39735602 549.10196684 545.31629038 549.14538372 C543.8375142 552.93669246 542.14127854 556.38232203 540.11316538 559.91491497 C539.46992319 561.03833293 538.826681 562.1617509 538.16394663 563.31921184 C537.46484272 564.53216866 536.76562094 565.74505756 536.06629038 566.95788372 C535.34083687 568.22144475 534.61557912 569.48511819 533.89050913 570.74889934 C528.8384873 579.54469555 523.73331888 588.30918109 518.60828257 597.06262004 C514.12621525 604.72781564 509.71212729 612.43058477 505.31629038 620.14538372 C500.3625019 628.83940101 495.372468 637.51033302 490.31629038 646.14538372 C483.34985244 658.0461327 476.50837259 670.01621991 469.68173838 681.99748027 C466.81002144 687.03506041 463.93231955 692.06921998 461.05505991 697.10363567 C460.50157373 698.07215717 459.94808756 699.04067867 459.37782907 700.0385493 C458.02401758 702.40751396 456.67017052 704.77645829 455.31629038 707.14538372 C410.44404528 707.19683322 365.57179684 707.24458244 320.69953012 707.27241313 C320.03346511 707.27282731 319.36740009 707.27324148 318.68115129 707.2736682 C304.19939508 707.28265075 289.71763857 707.29096074 275.23588158 707.2985797 C268.13215059 707.30232112 261.02841968 707.30621086 253.92468882 707.31017864 C253.21785102 707.31057091 252.51101322 707.31096319 251.7827561 707.31136736 C228.94751485 707.32410967 206.11229613 707.34661205 183.27706848 707.37427538 C159.77499589 707.40269426 136.27293572 707.42106793 112.77084624 707.42712869 C97.64982135 707.43104898 82.52885792 707.44349126 67.40785334 707.46913312 C57.46706831 707.48512091 47.52631626 707.48975494 37.58551934 707.48588785 C31.86976314 707.48398635 26.15411926 707.4866788 20.43838358 707.50300014 C-41.4803451 707.67085954 -116.39885167 706.39693794 -164.13292837 660.68835247 C-164.97468618 659.84917278 -165.816444 659.00999309 -166.68370962 658.14538372 C-167.52031118 657.31522747 -168.35691275 656.48507122 -169.21886587 655.62975872 C-177.67391439 647.10771298 -184.63679954 638.49408685 -190.68370962 628.14538372 C-191.05882681 627.50890911 -191.433944 626.8724345 -191.82042837 626.21667278 C-205.31488869 602.99284473 -211.88595562 577.08189227 -215.93370962 550.70788372 C-216.0848522 549.73504436 -216.23599478 548.762205 -216.39171743 547.75988567 C-219.4268991 526.37487265 -219.99906064 504.81944708 -220.09777212 483.25475872 C-220.11592672 480.514782 -220.1366355 477.77482531 -220.15700674 475.03486431 C-220.21042139 467.55860236 -220.24931107 460.08230625 -220.28540945 452.60594356 C-220.30844449 447.86312385 -220.33512004 443.12032844 -220.36229849 438.37753093 C-220.50061058 414.00863913 -220.59475987 389.63966282 -220.67353773 365.27051246 C-220.68393124 362.07729518 -220.69457446 358.88407881 -220.70527029 355.69086254 C-220.80934003 324.48952946 -220.87940735 293.28826706 -220.91818941 262.08678579 C-220.92883455 254.0440028 -220.94678189 246.00125625 -220.9677062 237.95849407 C-220.99324038 228.04813149 -221.00728518 218.13782551 -221.00764859 208.22742897 C-221.00807036 203.12849898 -221.01303809 198.02969367 -221.03129339 192.93079364 C-221.19945974 143.41585245 -219.37011634 90.82664138 -187.68370962 50.14538372 C-187.04949087 49.32553997 -186.41527212 48.50569622 -185.76183462 47.66100872 C-158.6084736 14.93772748 -112.15185672 5.99533596 -72.18370962 1.95788372 C-48.16962376 -0.13331771 -24.08229164 -0.00637903 0 0 Z M4.81629038 159.95788372 C3.99717173 160.12965129 3.17805307 160.30141887 2.33411264 160.47839153 C-11.34423293 163.48604033 -25.27334715 168.71367263 -33.41027212 180.84850872 C-37.50267732 188.22990214 -39.88666119 195.62427044 -40.81212759 204.01232708 C-40.89536213 204.74868105 -40.97859667 205.48503503 -41.06435347 206.24370277 C-41.90268863 214.27711875 -41.93705211 222.26858619 -41.87902212 230.33678997 C-41.87527715 231.90432859 -41.87243724 233.4718696 -41.87044668 235.03941143 C-41.8629267 239.10153843 -41.84338322 243.16351504 -41.82103872 247.22558391 C-41.8003246 251.39609546 -41.79139117 255.56663208 -41.78136587 259.73718059 C-41.76012224 267.87331618 -41.72613325 276.00933108 -41.68370962 284.14538372 C1.06031509 284.19126959 43.80433693 284.22645777 86.54838144 284.24751437 C91.6070855 284.25001546 96.66578951 284.25260414 101.7244935 284.255247 C103.23499101 284.25603393 103.23499101 284.25603393 104.77600361 284.25683676 C121.03146033 284.26551378 137.28690273 284.28126869 153.54235099 284.29968931 C170.25083901 284.31846387 186.95931958 284.32951633 203.66781771 284.33356071 C213.95850167 284.33629017 224.24914519 284.34487661 234.53981669 284.36121665 C241.61882011 284.37187706 248.69780295 284.37496412 255.77681379 284.37238647 C259.84679796 284.37111909 263.91671202 284.37291036 267.98668337 284.38379467 C321.34198145 286.63049028 321.34198145 286.63049028 368.31629038 266.14538372 C368.92859507 265.57303997 369.54089975 265.00069622 370.17175913 264.41100872 C382.02782181 252.17575426 382.63641095 235.39945462 382.55090952 219.31432903 C382.25438116 201.41200547 379.46618497 185.84560191 366.25379038 173.02038372 C343.49685688 153.70917559 304.88995216 155.67992899 276.98279428 155.77306926 C274.37252263 155.7706328 271.76225193 155.76690529 269.15198374 155.76200664 C262.87404639 155.75264794 256.59622616 155.75900165 250.3182977 155.77126958 C242.97423379 155.78507249 235.63019596 155.78323602 228.28612237 155.78113625 C215.16773673 155.77796561 202.04940587 155.78950492 188.93103647 155.80920208 C176.26044662 155.8282213 163.58992083 155.83528107 150.91931772 155.82970989 C137.04449564 155.82362707 123.1697015 155.82387295 109.2948817 155.83519572 C107.81063787 155.83640274 106.32639404 155.83760873 104.84215021 155.83881366 C104.11228828 155.8394172 103.38242635 155.84002074 102.6304474 155.84064257 C97.53491727 155.84449038 92.43939769 155.8441405 87.34386683 155.84222782 C80.46695021 155.83986164 73.59011588 155.84856806 66.71321726 155.86428821 C64.20642923 155.86849076 61.69963294 155.8694092 59.19284296 155.86659801 C41.01388228 155.84931984 22.67295618 156.15025599 4.81629038 159.95788372 Z " fill="#000000" transform="translate(2240.6837096214294,396.8546162843704)"/>
<path d="M0 0 C29.43616918 -0.15971767 58.87231784 -0.28358274 88.3088294 -0.35745731 C91.7847444 -0.36621216 95.26065855 -0.37527243 98.73657227 -0.38452148 C99.77455195 -0.38727574 99.77455195 -0.38727574 100.83350091 -0.39008565 C112.03539595 -0.42053785 123.23703931 -0.47572574 134.43878508 -0.54006957 C145.9344331 -0.60555046 157.4299041 -0.64389171 168.92573494 -0.65861946 C175.38221961 -0.66775079 181.83813361 -0.68923289 188.2944355 -0.7401104 C194.37087345 -0.78760673 200.4465054 -0.8022839 206.52311134 -0.79175377 C208.75360748 -0.79368028 210.98413042 -0.80761468 213.21446609 -0.83443832 C216.26083456 -0.86928045 219.3041621 -0.86089357 222.3506012 -0.84178162 C223.23291131 -0.86217151 224.11522143 -0.8825614 225.02426821 -0.90356916 C229.9180687 -0.82060141 232.42324702 -0.10487095 235.9592886 3.38366604 C236.99807414 4.56745086 238.01436807 5.77160609 239 7 C239.75925781 7.89203125 240.51851562 8.7840625 241.30078125 9.703125 C241.96464844 10.54359375 242.62851563 11.3840625 243.3125 12.25 C246.4271238 16.12080581 249.63333359 19.84625351 253 23.5 C256.27418423 27.05670244 259.40642433 30.67161811 262.4375 34.4375 C266.09571015 38.97316443 269.94742965 43.2570117 273.91381836 47.51928711 C277.69490558 51.60661006 281.19689966 55.88043244 284.6875 60.21875 C287.1997101 63.24019188 289.82400827 66.12441773 292.5 69 C296.76918152 73.58760113 300.75758517 78.33442728 304.6875 83.21875 C307.19971133 86.24019336 309.82402457 89.12440078 312.5 92 C316.7895776 96.61001639 320.80410897 101.37783236 324.75390625 106.28515625 C327.0883059 109.10673495 329.51990598 111.80590712 332 114.5 C335.27418423 118.05670244 338.40642433 121.67161811 341.4375 125.4375 C345.09571015 129.97316443 348.94742965 134.2570117 352.91381836 138.51928711 C356.69490558 142.60661006 360.19689966 146.88043244 363.6875 151.21875 C366.1997101 154.24019188 368.82400827 157.12441773 371.5 160 C375.76918152 164.58760113 379.75758517 169.33442728 383.6875 174.21875 C386.19971133 177.24019336 388.82402457 180.12440078 391.5 183 C395.78511467 187.60522007 399.79557405 192.36809197 403.7421875 197.26953125 C406.92955051 201.12414499 410.30633773 204.79185632 413.69140625 208.47265625 C416.53701163 211.58789598 419.27804178 214.77662843 422 218 C425.61345275 215.28202769 428.3991616 212.4896234 431.1875 208.9375 C434.34106986 204.99946002 437.57906128 201.20823373 441 197.5 C444.27418423 193.94329756 447.40642433 190.32838189 450.4375 186.5625 C454.09571015 182.02683557 457.94742965 177.7429883 461.91381836 173.48071289 C464.90427 170.24806025 467.73779007 166.93303234 470.5 163.5 C474.13499389 158.98222187 477.9671029 154.72181484 481.9140625 150.48046875 C484.90441358 147.24788253 487.73786329 143.93294134 490.5 140.5 C493.69931722 136.52370574 497.02584945 132.73331702 500.5 129 C504.7895776 124.38998361 508.80410897 119.62216764 512.75390625 114.71484375 C515.88167179 110.93432714 519.21273883 107.35519125 522.53515625 103.74609375 C524.92707297 101.08124834 527.19254884 98.35168175 529.4375 95.5625 C533.09571015 91.02683557 536.94742965 86.7429883 540.91381836 82.48071289 C543.90427 79.24806025 546.73779007 75.93303234 549.5 72.5 C553.13499389 67.98222187 556.9671029 63.72181484 560.9140625 59.48046875 C563.90441358 56.24788253 566.73786329 52.93294134 569.5 49.5 C572.69931722 45.52370574 576.02584945 41.73331702 579.5 38 C583.7883361 33.39131785 587.80216281 28.62534765 591.75 23.71875 C595.20455513 19.54449589 598.86346814 15.54764356 602.64338684 11.66522789 C604.12680617 9.96710458 604.12680617 9.96710458 605.22514343 7.55982399 C607.44678804 3.71682463 609.61833377 0.65744497 614.0809803 -0.57444239 C620.77636323 -1.52482207 627.55403205 -1.25079746 634.296875 -1.13525391 C636.59359107 -1.13243186 638.89031615 -1.13401905 641.18702698 -1.13967896 C647.41235412 -1.14254607 653.63575117 -1.08379145 659.86063004 -1.01393938 C666.36947063 -0.95138936 672.8783564 -0.9455492 679.38745117 -0.9336853 C690.30926893 -0.90614397 701.23037468 -0.84370061 712.15185547 -0.75439453 C723.39823892 -0.66252762 734.6444301 -0.59178164 745.89111328 -0.54931641 C746.93191555 -0.54537555 746.93191555 -0.54537555 747.99374413 -0.54135509 C751.47486646 -0.5283042 754.95599013 -0.51566724 758.43711472 -0.50323606 C787.29187728 -0.3996599 816.14592167 -0.22286306 845 0 C840.87662214 8.58876618 833.53771115 15.58509208 827.08813477 22.51757812 C824.09665318 25.75048484 821.26275939 29.06628475 818.5 32.5 C814.86500611 37.01777813 811.0328971 41.27818516 807.0859375 45.51953125 C804.09558642 48.75211747 801.26213671 52.06705866 798.5 55.5 C794.86500611 60.01777813 791.0328971 64.27818516 787.0859375 68.51953125 C784.09558642 71.75211747 781.26213671 75.06705866 778.5 78.5 C774.86500611 83.01777813 771.0328971 87.27818516 767.0859375 91.51953125 C764.09558642 94.75211747 761.26213671 98.06705866 758.5 101.5 C754.86500611 106.01777813 751.0328971 110.27818516 747.0859375 114.51953125 C744.09558642 117.75211747 741.26213671 121.06705866 738.5 124.5 C734.86500611 129.01777813 731.0328971 133.27818516 727.0859375 137.51953125 C724.09558642 140.75211747 721.26213671 144.06705866 718.5 147.5 C714.86500611 152.01777813 711.0328971 156.27818516 707.0859375 160.51953125 C704.09558642 163.75211747 701.26213671 167.06705866 698.5 170.5 C694.86500611 175.01777813 691.0328971 179.27818516 687.0859375 183.51953125 C684.09558642 186.75211747 681.26213671 190.06705866 678.5 193.5 C674.86500611 198.01777813 671.0328971 202.27818516 667.0859375 206.51953125 C664.09558642 209.75211747 661.26213671 213.06705866 658.5 216.5 C654.86500611 221.01777813 651.0328971 225.27818516 647.0859375 229.51953125 C644.09558642 232.75211747 641.26213671 236.06705866 638.5 239.5 C634.86500611 244.01777813 631.0328971 248.27818516 627.0859375 252.51953125 C624.09558642 255.75211747 621.26213671 259.06705866 618.5 262.5 C614.8643595 267.01858176 611.03163598 271.27983329 607.08374023 275.52172852 C604.11284372 278.7329905 601.30038923 282.02627815 598.5625 285.4375 C594.71954521 290.21541338 590.63168671 294.68994984 586.44384766 299.16162109 C582.52093146 303.37429105 578.88088976 307.76413555 575.27734375 312.25390625 C572.78173531 315.26319052 570.16234857 318.13938654 567.5 321 C563.2392393 325.57849739 559.25252632 330.3093421 555.34375 335.1953125 C553.61669005 337.26202758 551.87886273 339.22693568 550.03125 341.1796875 C549.52787109 341.71271484 549.02449219 342.24574219 548.50585938 342.79492188 C547.52626232 343.82279998 546.5383457 344.84283441 545.54101562 345.85351562 C543.5606668 347.93102442 542.06440707 349.8615467 540.8515625 352.46875 C541.08465295 356.44355565 543.67268911 358.47375138 546.375 361.125 C547.49733832 362.2787782 548.61710474 363.43506341 549.734375 364.59375 C550.5706543 365.45419922 550.5706543 365.45419922 551.42382812 366.33203125 C553.62377898 368.66010811 555.62647085 371.12324409 557.625 373.625 C560.63363119 377.37221213 563.74492917 380.9644923 567 384.5 C570.27418423 388.05670244 573.40642433 391.67161811 576.4375 395.4375 C579.65943101 399.43223986 583.00655495 403.24554349 586.5 407 C590.78955113 411.61004336 594.80410672 416.37782956 598.75390625 421.28515625 C601.0883059 424.10673495 603.51990598 426.80590712 606 429.5 C609.27418423 433.05670244 612.40642433 436.67161811 615.4375 440.4375 C618.65943101 444.43223986 622.00655495 448.24554349 625.5 452 C629.78955113 456.61004336 633.80410672 461.37782956 637.75390625 466.28515625 C640.0883059 469.10673495 642.51990598 471.80590712 645 474.5 C648.27418423 478.05670244 651.40642433 481.67161811 654.4375 485.4375 C657.65943101 489.43223986 661.00655495 493.24554349 664.5 497 C668.78955113 501.61004336 672.80410672 506.37782956 676.75390625 511.28515625 C679.0883059 514.10673495 681.51990598 516.80590712 684 519.5 C687.27418423 523.05670244 690.40642433 526.67161811 693.4375 530.4375 C696.65943101 534.43223986 700.00655495 538.24554349 703.5 542 C707.78955113 546.61004336 711.80410672 551.37782956 715.75390625 556.28515625 C718.0883059 559.10673495 720.51990598 561.80590712 723 564.5 C726.27418423 568.05670244 729.40642433 571.67161811 732.4375 575.4375 C735.65943101 579.43223986 739.00655495 583.24554349 742.5 587 C746.78955113 591.61004336 750.80410672 596.37782956 754.75390625 601.28515625 C757.0883059 604.10673495 759.51990598 606.80590712 762 609.5 C765.27418423 613.05670244 768.40642433 616.67161811 771.4375 620.4375 C775.09571015 624.97316443 778.94742965 629.2570117 782.91381836 633.51928711 C786.69490558 637.60661006 790.19689966 641.88043244 793.6875 646.21875 C796.19971133 649.24019336 798.82402457 652.12440078 801.5 655 C805.7895776 659.61001639 809.80410897 664.37783236 813.75390625 669.28515625 C816.0883059 672.10673495 818.51990598 674.80590712 821 677.5 C825.08243494 681.93523796 828.90655729 686.51888608 832.68359375 691.21484375 C836.01226891 695.21711253 839.55905988 698.99796763 843.12890625 702.78515625 C845 705 845 705 845 707 C815.72542133 707.2510845 786.45091919 707.44568063 757.17548353 707.56171862 C753.71716628 707.57547595 750.25885117 707.58971354 746.80053711 707.60424805 C745.76783028 707.60857617 745.76783028 707.60857617 744.71426069 707.61299173 C733.57495 707.66082171 722.43626547 707.74753144 711.29732592 707.84868076 C699.86267676 707.95164721 688.42853513 708.01184375 676.9934091 708.03497344 C670.57225773 708.04931183 664.15252517 708.08299326 657.73182869 708.16303062 C651.6862591 708.23778021 645.6426904 708.2607114 639.59670258 708.24418449 C637.37988084 708.2472071 635.1629912 708.26904252 632.94656944 708.31126022 C615.30685291 708.6307329 615.30685291 708.6307329 610.73846245 704.5836277 C608.45590226 701.82199619 606.72217942 699.13113534 605 696 C603.5271138 694.18208585 603.5271138 694.18208585 602.03125 692.6875 C596.88156979 687.2199383 592.02367457 681.63656696 587.3125 675.78125 C584.8002899 672.75980812 582.17599173 669.87558227 579.5 667 C575.23081848 662.41239887 571.24241483 657.66557272 567.3125 652.78125 C564.8002899 649.75980812 562.17599173 646.87558227 559.5 644 C555.23081848 639.41239887 551.24241483 634.66557272 547.3125 629.78125 C544.8002899 626.75980812 542.17599173 623.87558227 539.5 621 C535.23081848 616.41239887 531.24241483 611.66557272 527.3125 606.78125 C524.8002899 603.75980812 522.17599173 600.87558227 519.5 598 C515.23081848 593.41239887 511.24241483 588.66557272 507.3125 583.78125 C504.8002899 580.75980812 502.17599173 577.87558227 499.5 575 C495.23081848 570.41239887 491.24241483 565.66557272 487.3125 560.78125 C484.8002899 557.75980812 482.17599173 554.87558227 479.5 552 C475.23081848 547.41239887 471.24241483 542.66557272 467.3125 537.78125 C464.8002899 534.75980812 462.17599173 531.87558227 459.5 529 C455.23081848 524.41239887 451.24241483 519.66557272 447.3125 514.78125 C444.36491953 511.236187 441.24684414 507.87327657 438.10351562 504.50244141 C434.14102284 500.22557596 430.48567721 495.75940675 426.875 491.1796875 C425.00683264 488.81024636 425.00683264 488.81024636 422 487 C416.67140795 492.70707148 411.39649698 498.41270339 406.5 504.5 C402.86500611 509.01777813 399.0328971 513.27818516 395.0859375 517.51953125 C392.09558642 520.75211747 389.26213671 524.06705866 386.5 527.5 C382.86500611 532.01777813 379.0328971 536.27818516 375.0859375 540.51953125 C372.09558642 543.75211747 369.26213671 547.06705866 366.5 550.5 C362.86500611 555.01777813 359.0328971 559.27818516 355.0859375 563.51953125 C352.09558642 566.75211747 349.26213671 570.06705866 346.5 573.5 C342.86500611 578.01777813 339.0328971 582.27818516 335.0859375 586.51953125 C332.09558642 589.75211747 329.26213671 593.06705866 326.5 596.5 C322.86500611 601.01777813 319.0328971 605.27818516 315.0859375 609.51953125 C312.09558642 612.75211747 309.26213671 616.06705866 306.5 619.5 C302.86500611 624.01777813 299.0328971 628.27818516 295.0859375 632.51953125 C292.09558642 635.75211747 289.26213671 639.06705866 286.5 642.5 C282.86500611 647.01777813 279.0328971 651.27818516 275.0859375 655.51953125 C272.09558642 658.75211747 269.26213671 662.06705866 266.5 665.5 C262.8643595 670.01858176 259.03163598 674.27983329 255.08374023 678.52172852 C252.11284372 681.7329905 249.30038923 685.02627815 246.5625 688.4375 C245.86579319 689.27149228 245.16908638 690.10548456 244.45126724 690.96474934 C242.74987956 693.07147112 241.23212219 695.10924292 239.71960068 697.33507824 C235.80385553 702.71031256 232.01556581 706.97869105 225.23645782 708.17740822 C219.33552424 708.7670231 213.44459924 708.61038938 207.52441406 708.47583008 C205.25666517 708.47215857 202.98890084 708.47423035 200.72116089 708.48158264 C194.59259828 708.4852991 188.46737149 708.4091029 182.33958149 708.31812119 C175.92559736 708.23662049 169.51152898 708.22919956 163.09710693 708.21379089 C152.34008446 708.17802994 141.58451391 708.09694231 130.828125 707.98071289 C119.75461871 707.86118208 108.681444 707.76926418 97.60742188 707.71411133 C96.92356557 707.71069592 96.23970927 707.70728052 95.53513005 707.70376161 C92.10404335 707.68679476 88.67295432 707.67036689 85.24186373 707.65420687 C56.82707207 707.51968074 28.41360155 707.28995134 0 707 C1.61817175 703.59170063 3.47765964 701.20469242 6.0625 698.4375 C9.29198338 694.91957792 12.38460518 691.34817625 15.375 687.625 C19.05636689 683.07139288 22.92774473 678.76417484 26.91357422 674.48095703 C29.90412641 671.24823796 32.73771685 667.93312334 35.5 664.5 C39.13499389 659.98222187 42.9671029 655.72181484 46.9140625 651.48046875 C49.90441358 648.24788253 52.73786329 644.93294134 55.5 641.5 C59.13499389 636.98222187 62.9671029 632.72181484 66.9140625 628.48046875 C69.90441358 625.24788253 72.73786329 621.93294134 75.5 618.5 C79.1356405 613.98141824 82.96836402 609.72016671 86.91625977 605.47827148 C89.88715628 602.2670095 92.69961077 598.97372185 95.4375 595.5625 C99.28045479 590.78458662 103.36831329 586.31005016 107.55615234 581.83837891 C111.47906854 577.62570895 115.11911024 573.23586445 118.72265625 568.74609375 C121.21826469 565.73680948 123.83765143 562.86061346 126.5 560 C129.97419243 556.26672745 133.3006871 552.47628889 136.5 548.5 C140.13499389 543.98222187 143.9671029 539.72181484 147.9140625 535.48046875 C150.90441358 532.24788253 153.73786329 528.93294134 156.5 525.5 C160.13499389 520.98222187 163.9671029 516.72181484 167.9140625 512.48046875 C170.90441358 509.24788253 173.73786329 505.93294134 176.5 502.5 C180.13499389 497.98222187 183.9671029 493.72181484 187.9140625 489.48046875 C190.90441358 486.24788253 193.73786329 482.93294134 196.5 479.5 C200.13499389 474.98222187 203.9671029 470.72181484 207.9140625 466.48046875 C210.90441358 463.24788253 213.73786329 459.93294134 216.5 456.5 C220.13499389 451.98222187 223.9671029 447.72181484 227.9140625 443.48046875 C230.90441358 440.24788253 233.73786329 436.93294134 236.5 433.5 C240.1356405 428.98141824 243.96836402 424.72016671 247.91625977 420.47827148 C250.88715628 417.2670095 253.69961077 413.97372185 256.4375 410.5625 C260.28045479 405.78458662 264.36831329 401.31005016 268.55615234 396.83837891 C272.47906854 392.62570895 276.11911024 388.23586445 279.72265625 383.74609375 C282.21827019 380.73680284 284.83776789 377.86072784 287.5 375 C292.58552038 369.53106866 297.34186972 363.83880488 302 358 C302.74378906 357.07058594 303.48757813 356.14117188 304.25390625 355.18359375 C304.83011719 354.46300781 305.40632813 353.74242187 306 353 C297.76321458 343.31265641 297.76321458 343.31265641 289.3125 333.8125 C286.3208184 330.52057795 283.47475577 327.15408693 280.6875 323.6875 C276.79679292 318.87334412 272.66999534 314.35075666 268.44213867 309.83666992 C264.54031611 305.64706391 260.92689822 301.27845286 257.34375 296.8125 C254.66791722 293.60150066 251.85640293 290.54972364 249 287.5 C244.54125556 282.73911006 240.3620217 277.8353218 236.27734375 272.74609375 C233.7817361 269.73681042 231.16236519 266.86059714 228.5 264 C225.04838064 260.29138312 221.73477852 256.51494105 218.5625 252.5625 C214.71889943 247.78378372 210.63039836 243.30842313 206.44165039 238.83618164 C202.5400333 234.64670474 198.92675203 230.27827064 195.34375 225.8125 C192.66791722 222.60150066 189.85640293 219.54972364 187 216.5 C182.54125556 211.73911006 178.3620217 206.8353218 174.27734375 201.74609375 C171.7817361 198.73681042 169.16236519 195.86059714 166.5 193 C163.04838064 189.29138312 159.73477852 185.51494105 156.5625 181.5625 C152.71889943 176.78378372 148.63039836 172.30842313 144.44165039 167.83618164 C140.5400333 163.64670474 136.92675203 159.27827064 133.34375 154.8125 C130.66791829 151.60150195 127.85641724 148.54970863 125 145.5 C120.56167326 140.76133536 116.4085775 135.87880674 112.34375 130.8125 C109.66791722 127.60150066 106.85640293 124.54972364 104 121.5 C99.54125556 116.73911006 95.3620217 111.8353218 91.27734375 106.74609375 C88.7817361 103.73681042 86.16236519 100.86059714 83.5 98 C80.04838064 94.29138312 76.73477852 90.51494105 73.5625 86.5625 C69.71889943 81.78378372 65.63039836 77.30842313 61.44165039 72.83618164 C57.5400333 68.64670474 53.92675203 64.27827064 50.34375 59.8125 C47.66791722 56.60150066 44.85640293 53.54972364 42 50.5 C37.54125556 45.73911006 33.3620217 40.8353218 29.27734375 35.74609375 C26.78173217 32.73680569 24.16228206 29.86067879 21.5 27 C17.16031175 22.33466552 13.07378423 17.52069352 9.08203125 12.55078125 C6.55915052 9.45989735 3.91067855 6.49894872 1.21484375 3.55859375 C0 2 0 2 0 0 Z " fill="#000000" transform="translate(3247,397)"/>
<path d="M0 0 C64.35 0 128.7 0 195 0 C206.31028834 21.48954784 206.31028834 21.48954784 210.1875 29.75 C216.08874282 42.17356296 222.13386551 54.52512049 228.1875 66.875 C235.0629308 80.90640118 241.93011217 94.94150772 248.75 109 C249.2554686 110.04187469 249.2554686 110.04187469 249.77114868 111.10479736 C250.1081076 111.79934021 250.44506653 112.49388306 250.79223633 113.20947266 C251.47346247 114.61361045 252.1546962 116.01774456 252.8359375 117.421875 C253.34108131 118.46310013 253.34108131 118.46310013 253.85643005 119.52536011 C258.01978346 128.10486642 262.19738944 136.67742936 266.375 145.25 C266.77078247 146.06218994 267.16656494 146.87437988 267.57434082 147.71118164 C269.58036152 151.82769692 271.58652796 155.94414114 273.59277344 160.06054688 C277.16755323 167.395452 280.74098582 174.73101344 284.31451416 182.06652832 C286.2929537 186.1277127 288.27148133 190.18885417 290.25 194.25 C291.04166709 195.87499979 291.83333375 197.49999979 292.625 199.125 C293.016875 199.929375 293.40875 200.73375 293.8125 201.5625 C316.37499991 247.87499981 316.37499991 247.87499981 317.56246948 250.31243896 C318.35423619 251.93764324 319.14600458 253.56284669 319.93777466 255.18804932 C321.91542455 259.24741722 323.89304526 263.30679934 325.87060547 267.36621094 C329.4511803 274.71611751 333.03197458 282.06591677 336.61384583 289.41519165 C344.56535998 305.73014152 352.51202387 322.04738337 360.4375 338.375 C366.56916151 351.00692825 372.71725163 363.63076846 378.875 376.25 C379.71744792 377.9765625 380.55989583 379.703125 381.40234375 381.4296875 C383.09094901 384.8903161 384.77959946 388.35092265 386.46826172 391.81152344 C398.03431375 415.51448773 409.59498968 439.21900804 421 463 C423.9326578 459.4385372 425.90417313 455.46639387 427.94272804 451.35784626 C428.33252755 450.58025533 428.72232706 449.8026644 429.12393868 449.00151011 C430.43569059 446.38231465 431.74168915 443.7602923 433.04776001 441.13825989 C433.99387282 439.24619026 434.94033837 437.35429699 435.88712728 435.4625656 C438.49297663 430.25340483 441.09382029 425.04175847 443.69388247 419.82970726 C446.49670231 414.21339688 449.30413869 408.59939492 452.11103821 402.98512268 C456.97541845 393.25399762 461.83692868 383.52144403 466.69649124 373.78791237 C471.79410772 363.57762632 476.89354892 353.36825483 481.99537277 343.16007042 C482.31249484 342.52554368 482.62961691 341.89101694 482.95634874 341.23726211 C484.56685104 338.014853 486.17739031 334.79246236 487.78794663 331.57008024 C499.19857943 308.7397233 510.60580272 285.90766442 522.01074219 263.07446289 C522.70053198 261.69347573 523.39032185 260.31248861 524.08011179 258.93150153 C524.4218878 258.2472519 524.76366382 257.56300227 525.11579668 256.8580178 C526.84499755 253.39608712 528.57420029 249.93415738 530.30340576 246.472229 C530.6463133 245.78571547 530.98922083 245.09920194 531.3425195 244.39188497 C539.31087145 228.43899415 547.2802529 212.4866177 555.25 196.53442383 C555.76219174 195.50922117 555.76219174 195.50922117 556.28473079 194.46330734 C564.07621253 178.86790484 571.86816882 163.27273956 579.66106224 147.67804241 C579.98830754 147.02317642 580.31555284 146.36831043 580.65271466 145.69360001 C583.59594968 139.80376406 586.53920372 133.91393762 589.48255877 128.02416166 C596.83156266 113.31849551 604.17937459 98.61223582 611.52428329 83.9045238 C616.64085523 73.65892391 621.75872396 63.41397309 626.8779204 53.16968421 C629.65371811 47.61474406 632.42882559 42.05946165 635.20219994 36.50331116 C637.73675299 31.42562784 640.27310441 26.34884728 642.81093673 21.2728022 C643.73282854 19.42804605 644.65402863 17.58294405 645.57449825 15.73747788 C646.81749058 13.24561084 648.06289406 10.75496432 649.30895424 8.26463032 C649.67286479 7.53361051 650.03677534 6.8025907 650.41171348 6.04941878 C652.8858632 1.1141368 652.8858632 1.1141368 654 0 C656.50413517 -0.09773112 658.98066191 -0.12995681 661.48524475 -0.12025452 C662.67484013 -0.12153615 662.67484013 -0.12153615 663.88846773 -0.12284368 C666.56637396 -0.1245009 669.24421861 -0.11897319 671.92211914 -0.11352539 C673.83357237 -0.11324354 675.74502571 -0.1134012 677.65647888 -0.1139679 C682.86287459 -0.11425597 688.06924748 -0.10835761 693.27563787 -0.10139394 C698.71024159 -0.09516208 704.14484577 -0.09455674 709.57945251 -0.09336853 C719.87838758 -0.09025472 730.17731208 -0.08204066 740.47624248 -0.07201904 C752.19792757 -0.06085945 763.91961315 -0.05534784 775.64130223 -0.05032361 C799.76087402 -0.03985808 823.88043642 -0.02225768 848 0 C846.44260812 5.20070642 844.20536199 9.86236062 841.77137756 14.69102478 C841.34048984 15.55380352 840.90960211 16.41658226 840.46565717 17.30550581 C839.02264453 20.19248266 837.57393635 23.07656287 836.12524414 25.96069336 C835.08827339 28.03243306 834.05166127 30.10435229 833.01538086 32.17643738 C830.78218303 36.63989906 828.54646431 41.10208565 826.30879402 45.56330681 C823.06111516 52.03824608 819.81802283 58.51547246 816.57629126 64.99339098 C811.29983936 75.5370383 806.02011419 86.07904278 800.73803711 96.61987305 C800.26406807 97.56572117 800.26406807 97.56572117 799.78052389 98.53067733 C799.46420596 99.16191765 799.14788803 99.79315798 798.82198471 100.4435268 C798.1822255 101.72022426 797.54246726 102.99692219 796.90270996 104.27362061 C796.42728874 105.22237007 796.42728874 105.22237007 795.94226304 106.19028619 C792.4392199 113.18110141 788.9371125 120.17238525 785.43530273 127.16381836 C785.12243909 127.7884548 784.80957544 128.41309124 784.48723108 129.05665606 C779.23680106 139.53937831 773.98805811 150.02294474 768.74015898 160.50693423 C765.22964567 167.51977632 761.71676729 174.53142843 758.20205605 181.54216754 C755.99761856 185.94026789 753.79489136 190.33922333 751.59255219 194.73837471 C750.58360617 196.75284596 749.5739659 198.7669697 748.5635128 200.78068542 C743.68814229 210.49754776 738.87133345 220.23392533 734.21914673 230.0597229 C725.47202349 248.47943345 716.23504067 266.66358103 707.10930455 284.89745653 C704.26887963 290.57394653 701.43080098 296.25160947 698.59242249 301.92912292 C693.68676027 311.74096912 688.77965995 321.55209489 683.87151527 331.36269951 C678.73012298 341.6395446 673.58957432 351.91681097 668.45012474 362.19462776 C667.96881027 363.1571536 667.96881027 363.1571536 667.47777227 364.13912441 C665.84786862 367.39859332 664.21797978 370.65806963 662.58809664 373.91754878 C651.07669102 396.93826578 639.56343534 419.95805705 628.04907227 442.97729492 C616.87071752 465.32480371 605.69321289 487.67273736 594.5168457 510.02124023 C594.17167152 510.71145708 593.82649734 511.40167392 593.47086333 512.11280642 C590.00413475 519.04494492 586.53742332 525.977092 583.07072443 532.90924535 C576.01015479 547.02784917 568.94947084 561.14639582 561.88871765 575.26490784 C561.56415441 575.91389703 561.23959117 576.56288622 560.90519268 577.23154175 C550.9672512 597.10320593 541.02882577 616.97462801 531.08992004 636.84580994 C530.53365099 637.95797749 529.97738194 639.07014503 529.40425625 640.21601463 C518.26977812 662.47748012 507.13482802 684.73870953 496 707 C448.48 707 400.96 707 352 707 C340.26253065 684.69880823 340.26253065 684.69880823 334.90429688 673.9453125 C333.3503637 670.82903076 331.79312039 667.71446149 330.23242188 664.6015625 C326.50587618 657.15066248 322.83190828 649.67841705 319.25743479 642.15324479 C313.08769053 629.16598251 306.71231539 616.28819358 300.27319336 603.43286133 C299.132922 601.15259942 297.9928291 598.87224827 296.85289669 596.5918169 C294.39684283 591.67947733 291.93957174 586.76774981 289.48116684 581.85658646 C285.82514364 574.55291312 282.17148752 567.24805743 278.51829532 559.94296774 C272.36676607 547.64223209 266.21343714 535.34239759 260.05911255 523.0430603 C251.6489252 506.23534905 243.24140507 489.42630463 234.83457315 472.61691487 C230.90760947 464.76499282 226.98051686 456.91313525 223.0533905 449.06129456 C222.66038559 448.27552574 222.26738068 447.48975693 221.86246652 446.68017694 C212.52738822 428.01582002 203.1910473 409.35209476 193.85449219 390.68847656 C193.4464657 389.87283724 193.03843922 389.05719792 192.6180483 388.21684225 C186.41208124 375.81120363 180.2060481 363.40559807 174 351 C167.38179844 337.77052657 160.76362121 324.54104097 154.14550781 311.31152344 C153.73770887 310.49634013 153.32990992 309.68115683 152.90975343 308.841271 C143.58808458 290.20739301 134.26678085 271.57333249 124.9466095 252.93870544 C124.55423682 252.15420109 124.16186414 251.36969673 123.75760139 250.56141951 C119.83895699 242.72651688 115.9203759 234.89158259 112.00188908 227.05660115 C103.6071951 210.27151595 95.21140752 193.48697907 86.81335226 176.70357534 C80.6911647 164.46842108 74.57037459 152.23256861 68.4510076 139.99600339 C64.82416419 132.74372255 61.19620286 125.49200356 57.56658761 118.24110955 C54.8450195 112.80391292 52.12559267 107.36564814 49.40694058 101.92699277 C48.31559187 99.74456414 47.22357638 97.56246876 46.1307801 95.3807646 C39.73709576 82.61506914 33.46752648 69.79856918 27.34004402 56.90283394 C24.46314056 50.85450888 21.48050795 44.86312177 18.45703125 38.88671875 C17.35342313 36.6921038 16.24990982 34.49744117 15.14648438 32.30273438 C13.45806401 28.95101229 11.76831035 25.5999723 10.0769043 22.24975586 C8.40852809 18.94295168 6.74497833 15.63375564 5.08203125 12.32421875 C4.56969437 11.31300461 4.05735748 10.30179047 3.52949524 9.25993347 C3.06448105 8.33328384 2.59946686 7.40663422 2.12036133 6.4519043 C1.50394524 5.23025826 1.50394524 5.23025826 0.87507629 3.9839325 C0 2 0 2 0 0 Z " fill="#000000" transform="translate(1080,397)"/>
<path d="M0 0 C57.75 0 115.5 0 175 0 C175 330 175 660 175 1000 C117.25 1000 59.5 1000 0 1000 C0 670 0 340 0 0 Z " fill="#000000" transform="translate(2954,104)"/>
<path d="M0 0 C14.13635873 5.00608667 27.10666811 17.76353014 38.375 27.4375 C61.71704113 47.41121408 87.63979825 65.8644954 119.54381561 66.19391632 C120.63482864 66.20705743 120.63482864 66.20705743 121.74788234 66.22046402 C124.16681582 66.24844771 126.58576002 66.26982093 129.00476074 66.2911377 C130.74229743 66.30977776 132.47983002 66.32880363 134.21735859 66.34818554 C138.93539811 66.39955592 143.65347806 66.44498942 148.3715893 66.48921335 C152.37357487 66.52743136 156.37552269 66.56901746 160.37747464 66.61058703 C200.81661195 67.03010874 241.2566724 67.3503485 281.69683018 67.65240708 C291.82992135 67.72821288 301.96299387 67.80639927 312.0960657 67.88474101 C330.22972618 68.02492461 348.3633941 68.16411355 366.49707031 68.30224609 C368.10065101 68.31446214 368.10065101 68.31446214 369.73662728 68.32692498 C381.68139021 68.41789455 393.62615526 68.5085817 405.57092285 68.59893799 C409.92456056 68.63187433 414.27819827 68.66481219 418.63183594 68.69775391 C420.24422302 68.7099532 420.24422302 68.7099532 421.88918358 68.72239894 C440.01659813 68.85960502 458.14399681 68.99880265 476.27138472 69.13948298 C486.33871392 69.21753952 496.40604838 69.29466014 506.47340393 69.36924744 C528.86302397 69.53546984 551.25239633 69.7175607 573.64161459 69.93150446 C579.34306478 69.98558615 585.04454629 70.03397239 590.74606323 70.08041382 C597.64994929 70.13704115 604.55363321 70.20459676 611.4572756 70.28578672 C614.9346549 70.32653279 618.41192522 70.36323016 621.88946247 70.38743687 C639.57636346 70.52273082 656.35961704 71.21116215 673.25 77 C674.54852905 77.44122192 674.54852905 77.44122192 675.87329102 77.89135742 C691.48790181 83.44900483 706.04518971 91.68838252 719 102 C719.5455957 102.43280273 720.09119141 102.86560547 720.65332031 103.31152344 C746.92499788 124.38119338 767.09085327 151.4950565 778.60546875 183.20703125 C779.03510422 184.37883438 779.46473969 185.55063751 779.90739441 186.75794983 C781.27791188 190.50303533 782.64035999 194.25095725 784 198 C784.66071503 199.81954193 784.66071503 199.81954193 785.33477783 201.67584229 C788.27290495 209.77472889 791.19485901 217.87939918 794.11067963 225.98633575 C796.03073547 231.32437446 797.95232401 236.66186188 799.87386322 241.99936676 C800.34957874 243.32085169 800.82523122 244.64235931 801.3008194 245.96389008 C804.28917795 254.26725337 807.29194699 262.56518131 810.31640625 270.85546875 C810.93585848 272.55669744 811.55524641 274.25794955 812.17456055 275.95922852 C813.01420067 278.26559526 813.85529176 280.57136301 814.70181274 282.87521362 C815.44855384 284.90752222 816.18973105 286.94177602 816.9296875 288.9765625 C817.33429199 290.08080566 817.73889648 291.18504883 818.15576172 292.32275391 C819 295 819 295 819 298 C712.12518265 298.0524599 605.25036367 298.08210036 293.941432 297.78006786 C286.29215526 297.75485163 278.64290124 297.73976586 270.99359131 297.72927856 C261.93408436 297.71668878 252.87475142 297.69072641 243.81534582 297.64548725 C239.39541499 297.62362977 234.97569036 297.6070348 230.5557003 297.60809898 C181.22026979 297.60683143 142.57639106 282.72041774 107 248 C104.52087603 245.43841037 102.24899755 242.76478004 100 240 C99.57783203 239.49549316 99.15566406 238.99098633 98.72070312 238.47119141 C83.68956363 220.50702091 71.66203096 201.06930337 63.328125 179.15234375 C62.89594162 178.02151367 62.46375824 176.89068359 62.01847839 175.72558594 C57.66372665 164.24954358 53.58468905 152.68085538 49.5581665 141.08633423 C47.60439473 135.46133063 45.63890216 129.84042544 43.67402649 124.21929359 C43.01515969 122.33406439 42.35676074 120.4486717 41.69836426 118.5632782 C38.05260951 108.1299548 34.3540376 97.71630086 30.625 87.3125 C29.44758684 84.02485763 28.27058445 80.73706832 27.09375 77.44921875 C26.78717972 76.59279785 26.48060944 75.73637695 26.16474915 74.85400391 C21.64004926 62.20731053 17.1397017 49.55194038 12.64276123 36.89535522 C11.635583 34.06090056 10.62745251 31.22678746 9.61846924 28.39297485 C8.42778072 25.04875115 7.23889283 21.70389283 6.05137634 18.35854149 C5.39701066 16.51652973 4.74082279 14.67516562 4.08459473 12.83381653 C3.495755 11.17318428 3.495755 11.17318428 2.89501953 9.47900391 C2.55165558 8.51314362 2.20829163 7.54728333 1.85452271 6.55215454 C1.12662451 4.37818223 0.51393048 2.23259488 0 0 Z " fill="#A18751" transform="translate(328,815)"/>
<path d="M0 0 C4.33337667 1.69289162 7.26847586 4.89772367 10.5625 8.0625 C15.68853134 12.91072662 20.92815503 17.49334314 26.44140625 21.90234375 C28.94727704 23.95677522 31.31525681 26.10603753 33.6875 28.3125 C61.6376356 53.69352647 96.82640536 72.96407671 135.275177 73.18945312 C136.0639231 73.19776909 136.8526692 73.20608505 137.6653167 73.21465302 C140.30826896 73.24130622 142.95122742 73.26131493 145.59423828 73.28125 C147.53083995 73.29913472 149.46743836 73.3173755 151.40403366 73.3359375 C156.77301941 73.38599642 162.14204067 73.42979585 167.51109076 73.47232056 C170.98239371 73.50029887 174.45367757 73.53001297 177.92496109 73.56030273 C254.14337189 74.22495132 330.36417682 74.6178024 406.58410645 75.0625 C447.51580006 75.3013446 488.44744735 75.54438569 529.37890244 75.82156372 C530.14535358 75.82675219 530.91180472 75.83194066 531.70148166 75.83728635 C537.94649183 75.87957309 537.94649183 75.87957309 540.82196918 75.89910197 C551.11798052 75.96893629 561.41400707 76.03309249 571.71008301 76.09277344 C581.94363933 76.15224885 592.17706812 76.22103613 602.41045535 76.30488968 C607.29858959 76.34480203 612.18664032 76.38062419 617.07488632 76.40356445 C621.43651549 76.42414416 625.79783064 76.4580096 630.15927839 76.50262833 C631.68772627 76.51605666 633.216225 76.52486724 634.74472857 76.52804184 C648.66643426 76.5616836 662.93222967 77.97873635 676.125 82.6875 C676.85887939 82.94241211 677.59275879 83.19732422 678.34887695 83.45996094 C725.98429104 100.59581206 758.54311278 142.09209407 779.57978821 186.44880676 C783.34122212 194.52278016 786.34077783 202.75632183 789.1875 211.1875 C789.75319233 212.83675471 790.31988402 214.48566689 790.88745117 216.13427734 C792.17498365 219.87947278 793.4557671 223.62690438 794.73339844 227.37548828 C797.13273261 234.40326687 799.56633261 241.41902689 801.99990654 248.43499947 C803.76996739 253.5405404 805.53526548 258.64773 807.30093384 263.75479126 C808.30628261 266.66250784 809.31323127 269.56966321 810.32138062 272.47640991 C811.5215834 275.93804437 812.71681346 279.40135944 813.90848923 282.86593819 C814.56577633 284.77314664 815.22785081 286.67870308 815.89004517 288.58421326 C816.285737 289.73736526 816.68142883 290.89051727 817.08911133 292.07861328 C817.43549149 293.08159454 817.78187164 294.08457581 818.13874817 295.11795044 C819.02070029 298.06927042 819.51914424 300.96092009 820 304 C728.40785675 304.09926537 636.8158076 304.05944809 422.56567192 303.76267529 C418.22790405 303.753939 413.89013613 303.74523093 409.55236816 303.73654175 C408.48005652 303.73438654 407.40774488 303.73223133 406.30293895 303.73001081 C390.03688575 303.69753736 373.77083413 303.67346477 357.50476074 303.65383911 C338.7701622 303.63122279 320.03561553 303.59809789 301.30106086 303.55139875 C290.65182604 303.52516154 280.00265014 303.50716141 269.35338465 303.50063609 C262.1559617 303.49537915 254.95861519 303.47915987 247.76123335 303.45432807 C243.64444847 303.44042788 239.52780003 303.43110977 235.41099024 303.43499291 C216.06419295 303.44954715 197.44658562 303.10994017 178.8125 297.25 C177.98137695 296.99323486 177.15025391 296.73646973 176.29394531 296.47192383 C168.50761284 293.98350058 161.22470095 290.80537684 154 287 C153.34016113 286.65565918 152.68032227 286.31131836 152.00048828 285.95654297 C142.70933897 281.05869499 134.17877041 275.63025655 126 269 C125.4730957 268.57460938 124.94619141 268.14921875 124.40332031 267.7109375 C111.716451 257.41085607 100.71929253 246.13577112 91 233 C90.60039062 232.46117187 90.20078125 231.92234375 89.7890625 231.3671875 C74.54122988 210.59329473 65.27380808 187.53681817 56.93728638 163.31771851 C54.98189313 157.63794405 53.00527304 151.96556672 51.02994347 146.29270363 C50.35029316 144.34010325 49.67154436 142.3871911 48.99287415 140.43424988 C44.60573926 127.81967727 40.09171183 115.25163947 35.5625 102.6875 C27.55775343 80.45944691 19.72253297 58.17437758 11.93969727 35.86791992 C11.5158223 34.65318497 11.09194733 33.43845001 10.65522766 32.18690491 C9.84182467 29.855155 9.02889049 27.5232415 8.21647644 25.19114685 C5.78013281 18.2047902 3.30534074 11.2345174 0.75537109 4.28881836 C0 2 0 2 0 0 Z " fill="#B59A5B" transform="translate(183,415)"/>
<path d="M0 0 C55.59809618 -0.02823718 111.19552916 0.04248664 166.79345647 0.17627272 C171.99244047 0.18873488 177.19142499 0.20097901 182.39040947 0.21324348 C199.87348766 0.25455032 217.35656482 0.2962489 234.83963871 0.33933926 C236.49312804 0.34341333 236.49312804 0.34341333 238.18002119 0.34756971 C239.83549711 0.35164894 239.83549711 0.35164894 241.52441698 0.35581058 C243.7575703 0.36131263 245.99072363 0.36681392 248.22387695 0.37231445 C249.33139112 0.37504276 250.43890528 0.37777106 251.57998049 0.38058204 C267.14114801 0.41884955 282.70231881 0.45524154 298.26349466 0.48995443 C355.27655777 0.61714021 412.28947489 0.76822281 469.30232788 0.96965712 C475.99641743 0.99322278 482.6905102 1.01561985 489.38460541 1.03751373 C508.59267617 1.1007814 527.80064043 1.17298938 547.00854653 1.27553064 C548.60050493 1.28400694 550.19246339 1.29247033 551.78442192 1.30092049 C552.56294445 1.30505444 553.34146698 1.3091884 554.1435811 1.31344762 C559.50545248 1.34118848 564.86731892 1.36157354 570.2292347 1.37841606 C577.26380895 1.40057593 584.29816325 1.43764398 591.33261037 1.48533702 C593.85293131 1.50016947 596.37328648 1.51018786 598.89364696 1.51473927 C615.97229726 1.54965733 632.07488533 2.4507109 648.375 8.0625 C649.24584229 8.35922607 650.11668457 8.65595215 651.01391602 8.96166992 C680.15374778 19.32115273 705.05475048 39.89671166 724 64 C724.7321875 64.92683594 725.464375 65.85367188 726.21875 66.80859375 C738.36637422 82.57056391 748.80717549 100.00265932 755.796875 118.66015625 C756.13931244 119.56735413 756.48174988 120.474552 756.83456421 121.40924072 C760.65366565 131.6137326 764.14950433 141.9246309 767.625 152.25 C768.31294586 154.28343657 769.00134957 156.3167183 769.69018555 158.34985352 C771.0979022 162.50566325 772.50394724 166.66203226 773.90869141 170.81884766 C776.89104279 179.63927372 779.89349969 188.45283025 782.90081787 197.26477051 C783.79206327 199.87758674 784.68152801 202.49100404 785.57080078 205.10449219 C786.11612748 206.7038045 786.6615332 208.30308987 787.20703125 209.90234375 C787.56694405 210.96179451 787.56694405 210.96179451 787.93412781 212.04264832 C789.11466658 215.49783626 790.35024599 218.91566584 791.67456055 222.31860352 C793 226 793 226 793 229 C736.07724931 229.02322116 679.15449907 229.04067562 622.23174452 229.05106533 C615.41141366 229.05231159 608.5910828 229.05360829 601.77075195 229.05493164 C600.75323157 229.05512778 600.75323157 229.05512778 599.71515523 229.05532788 C580.10668664 229.05912878 560.49822045 229.06532221 540.8897533 229.07373862 C470.35881557 229.10392161 399.82798733 229.10516897 329.29709947 229.00467265 C326.04589723 229.00006505 322.7946948 228.99561495 319.54349232 228.99118328 C295.95360006 228.95849346 272.36395168 228.90654399 248.77427367 228.79857573 C247.9538827 228.79482141 247.13349173 228.7910671 246.28824043 228.78719902 C245.06967688 228.7815961 245.06967688 228.7815961 243.82649588 228.77587998 C238.25904453 228.75116554 232.69162332 228.73610729 227.12412834 228.72572517 C220.55699719 228.71332806 213.99010152 228.68739929 207.42310585 228.64290147 C204.17810571 228.62117577 200.93343535 228.60704438 197.68835378 228.60619617 C151.22599128 228.57837528 113.24643265 210.14638003 80.47509766 177.47998047 C59.83501852 156.45485 46.84995183 131.57276361 36.375 104.3125 C36.07664246 103.53999908 35.77828491 102.76749817 35.47088623 101.97158813 C25.43892735 75.98293915 16.18846403 49.73653778 7.1875 23.375 C6.82658264 22.31993256 6.46566528 21.26486511 6.09381104 20.17782593 C5.07317385 17.19010269 4.05715872 14.20085458 3.04296875 11.2109375 C2.57994102 9.85581306 2.57994102 9.85581306 2.1075592 8.47331238 C1.82867355 7.64729019 1.5497879 6.82126801 1.26245117 5.97021484 C1.01742355 5.24828949 0.77239594 4.52636414 0.51994324 3.78256226 C0 2 0 2 0 0 Z " fill="#BEA360" transform="translate(66,95)"/>
</svg>
